<?xml version="1.0" standalone="no"?>
<!DOCTYPE svg PUBLIC "-//W3C//DTD SVG 20010904//EN"
 "http://www.w3.org/TR/2001/REC-SVG-20010904/DTD/svg10.dtd">
<svg version="1.0" xmlns="http://www.w3.org/2000/svg"
 width="16.000000pt" height="16.000000pt" viewBox="0 0 16.000000 16.000000"
 preserveAspectRatio="xMidYMid meet">
<metadata>
Created by potrace 1.11, written by Peter Selinger 2001-2013
</metadata>
<g transform="translate(0.000000,16.000000) scale(0.002941,-0.002941)"
fill="#000000" stroke="none">
<path d="M1420 4980 c-690 -246 -1255 -452 -1257 -456 -1 -5 85 -755 190
-1667 l192 -1657 1055 -586 c580 -323 1062 -588 1070 -591 15 -4 2140 1164
2167 1190 13 13 431 3322 421 3332 -5 5 -2583 887 -2583 884 0 0 -565 -202
-1255 -449z m2159 -930 c46 -13 93 -47 119 -84 12 -18 94 -239 182 -493 l160
-461 0 -616 c0 -594 -1 -618 -20 -655 -13 -27 -33 -46 -65 -61 -40 -19 -58
-21 -154 -18 -92 2 -114 6 -137 24 -58 43 -68 67 -72 174 l-4 100 -898 0 -898
0 -4 -99 c-3 -107 -13 -132 -72 -175 -23 -18 -45 -22 -137 -24 -136 -5 -185
14 -218 82 -21 41 -21 57 -21 654 l0 611 162 468 c152 438 165 471 203 511 70
75 20 71 980 72 529 0 873 -4 894 -10z"/>
<path d="M1756 3513 c-60 -181 -111 -334 -114 -340 -3 -10 210 -13 1047 -13
578 0 1051 3 1051 7 0 5 -50 158 -111 340 l-111 333 -826 0 -827 0 -109 -327z"/>
<path d="M1759 2832 c-68 -36 -110 -99 -117 -176 -6 -69 11 -118 57 -169 86
-95 220 -103 313 -19 52 46 78 103 78 167 0 170 -179 277 -331 197z"/>
<path d="M3425 2841 c-147 -67 -180 -249 -66 -362 149 -150 396 -35 379 175
-13 153 -176 250 -313 187z"/>
</g>
</svg>
