<?xml version="1.0" standalone="no"?>
<!DOCTYPE svg PUBLIC "-//W3C//DTD SVG 20010904//EN"
 "http://www.w3.org/TR/2001/REC-SVG-20010904/DTD/svg10.dtd">
<svg version="1.0" xmlns="http://www.w3.org/2000/svg"
 width="16.000000pt" height="16.000000pt" viewBox="0 0 16.000000 16.000000"
 preserveAspectRatio="xMidYMid meet">
<metadata>
Created by potrace 1.11, written by Peter Selinger 2001-2013
</metadata>
<g transform="translate(0.000000,16.000000) scale(0.002286,-0.002286)"
fill="#000000" stroke="none">
<path d="M1880 5538 c-105 -8 -186 -37 -253 -92 -100 -81 -120 -122 -257 -521
-33 -93 -86 -249 -120 -345 -34 -96 -85 -245 -115 -330 -29 -85 -87 -252 -128
-370 -41 -118 -88 -253 -104 -300 l-29 -85 1 -1180 c1 -649 5 -1196 9 -1215
12 -52 34 -90 75 -133 74 -79 135 -94 366 -92 94 1 186 5 205 10 76 17 159 87
193 163 25 57 25 58 26 254 l1 157 1750 0 1750 0 1 -162 c2 -191 2 -191 22
-239 37 -88 124 -159 214 -175 26 -5 129 -9 228 -8 173 2 183 3 235 28 68 32
122 86 151 152 l22 50 2 1190 2 1190 -63 185 c-34 102 -99 291 -144 420 -45
129 -86 246 -90 260 -5 14 -40 117 -80 230 -39 113 -80 230 -90 260 -64 195
-155 442 -177 480 -33 57 -65 93 -128 140 -58 43 -101 60 -185 74 -56 9 -3173
13 -3290 4z m3435 -1069 c117 -349 216 -645 219 -657 l7 -22 -2041 0 c-1630 0
-2041 3 -2038 13 3 6 26 77 53 157 26 80 62 188 80 240 18 52 47 140 65 195
18 55 54 163 80 240 26 77 69 205 95 285 26 80 51 154 55 165 8 20 17 20 1610
20 l1603 0 212 -636z m-3297 -1279 c180 -55 306 -219 311 -405 7 -262 -208
-467 -470 -448 -174 13 -321 132 -383 313 -17 50 -15 208 4 259 55 146 188
263 331 290 55 10 159 6 207 -9z m3156 10 c202 -33 356 -205 365 -410 7 -164
-80 -319 -224 -399 -288 -161 -645 49 -645 379 0 204 137 376 338 424 71 18
92 18 166 6z"/>
</g>
</svg>
