<?xml version="1.0" standalone="no"?>
<!DOCTYPE svg PUBLIC "-//W3C//DTD SVG 20010904//EN"
 "http://www.w3.org/TR/2001/REC-SVG-20010904/DTD/svg10.dtd">
<svg version="1.0" xmlns="http://www.w3.org/2000/svg"
 width="16.000000pt" height="16.000000pt" viewBox="0 0 16.000000 16.000000"
 preserveAspectRatio="xMidYMid meet">
<metadata>
Created by potrace 1.11, written by Peter Selinger 2001-2013
</metadata>
<g transform="translate(0.000000,16.000000) scale(0.002941,-0.002941)"
fill="#000000" stroke="none">
<path d="M1408 4973 l-1247 -446 5 -26 c3 -14 90 -761 193 -1659 104 -899 193
-1638 197 -1642 5 -4 485 -272 1066 -595 l1058 -586 1080 597 c811 449 1082
603 1085 619 8 37 416 3308 413 3310 -12 10 -2568 875 -2583 874 -11 -1 -581
-202 -1267 -446z m2212 -936 c80 -42 88 -60 260 -554 l160 -461 0 -630 0 -629
-23 -34 c-37 -56 -76 -69 -202 -69 -129 0 -167 14 -202 76 -19 33 -23 54 -23
132 l0 92 -899 0 -899 0 -4 -102 c-3 -89 -6 -107 -27 -137 -35 -49 -74 -61
-198 -61 -124 0 -163 14 -200 69 l-23 34 0 629 0 629 155 445 c85 245 162 461
171 480 18 38 64 80 109 100 24 11 208 13 916 14 l886 0 43 -23z"/>
<path d="M1864 3825 c-23 -61 -214 -643 -214 -652 0 -10 208 -13 1045 -13 575
0 1045 3 1044 8 0 4 -51 156 -112 337 l-112 330 -824 0 c-540 0 -825 -3 -827
-10z"/>
<path d="M1796 2846 c-134 -50 -190 -190 -127 -314 79 -153 299 -156 387 -6
48 81 35 191 -30 262 -52 58 -158 84 -230 58z"/>
<path d="M3430 2839 c-55 -25 -86 -53 -110 -99 -39 -77 -33 -157 16 -232 76
-117 260 -124 352 -13 72 88 68 206 -9 290 -67 72 -163 93 -249 54z"/>
</g>
</svg>
