<?xml version="1.0" encoding="UTF-8" standalone="no"?>
<!-- Created with Inkscape (http://www.inkscape.org/) -->

<svg
   xmlns:dc="http://purl.org/dc/elements/1.1/"
   xmlns:cc="http://creativecommons.org/ns#"
   xmlns:rdf="http://www.w3.org/1999/02/22-rdf-syntax-ns#"
   xmlns:svg="http://www.w3.org/2000/svg"
   xmlns="http://www.w3.org/2000/svg"
   xmlns:sodipodi="http://sodipodi.sourceforge.net/DTD/sodipodi-0.dtd"
   xmlns:inkscape="http://www.inkscape.org/namespaces/inkscape"
   width="32"
   height="32"
   viewBox="0 0 32 32"
   id="svg2"
   version="1.1"
   inkscape:version="0.91 r13725"
   sodipodi:docname="favicon.svg">
  <defs
     id="defs4" />
  <sodipodi:namedview
     id="base"
     pagecolor="#ffffff"
     bordercolor="#666666"
     borderopacity="1.0"
     inkscape:pageopacity="0.0"
     inkscape:pageshadow="2"
     inkscape:zoom="16"
     inkscape:cx="12.012511"
     inkscape:cy="7.6123818"
     inkscape:document-units="px"
     inkscape:current-layer="g4588"
     showgrid="false"
     units="px"
     inkscape:window-width="1920"
     inkscape:window-height="1056"
     inkscape:window-x="0"
     inkscape:window-y="24"
     inkscape:window-maximized="1" />
  <metadata
     id="metadata7">
    <rdf:RDF>
      <cc:Work
         rdf:about="">
        <dc:format>image/svg+xml</dc:format>
        <dc:type
           rdf:resource="http://purl.org/dc/dcmitype/StillImage" />
        <dc:title></dc:title>
      </cc:Work>
    </rdf:RDF>
  </metadata>
  <g
     inkscape:label="Layer 1"
     inkscape:groupmode="layer"
     id="layer1"
     transform="translate(0,-1020.3622)">
    <g
       id="g4588"
       transform="translate(-219.5,438.5)">
      <g
         id="g4592"
         transform="matrix(0.0737093,0,0,0.0737093,205.44513,565.48445)">
        <circle
           style="fill:#ff2a2a;fill-opacity:1;stroke:#ffffff;stroke-width:7.5999999;stroke-linejoin:round;stroke-miterlimit:4;stroke-dasharray:none;stroke-dashoffset:0;stroke-opacity:1"
           id="path4136"
           cx="407.14285"
           cy="439.50507"
           r="212.85715" />
        <path
           inkscape:connector-curvature="0"
           style="fill:#ffffff"
           d="m 322.82144,458.57648 q 0,-9.8558 -7.01853,-16.87433 -7.01852,-7.01852 -16.87433,-7.01852 -9.8558,0 -16.87433,7.01852 -7.01852,7.01853 -7.01852,16.87433 0,9.85581 7.01852,16.87433 7.01853,7.01853 16.87433,7.01853 9.85581,0 16.87433,-7.01853 7.01853,-7.01852 7.01853,-16.87433 z m 5.37589,-47.78571 151.71965,0 -13.2904,-53.31094 q -0.29867,-1.19464 -2.09063,-2.61328 -1.79196,-1.41864 -3.13594,-1.41864 l -114.68571,0 q -1.34397,0 -3.13594,1.41864 -1.79196,1.41864 -2.09062,2.61328 z m 204.88125,47.78571 q 0,-9.8558 -7.01852,-16.87433 -7.01853,-7.01852 -16.87433,-7.01852 -9.85581,0 -16.87433,7.01852 -7.01853,7.01853 -7.01853,16.87433 0,9.85581 7.01853,16.87433 7.01852,7.01853 16.87433,7.01853 9.8558,0 16.87433,-7.01853 7.01852,-7.01852 7.01852,-16.87433 z m 23.89286,-14.33571 0,57.34286 q 0,2.09062 -1.34397,3.43459 -1.34397,1.34398 -3.4346,1.34398 l -14.33571,0 0,19.11428 q 0,11.94643 -8.3625,20.30893 -8.3625,8.3625 -20.30893,8.3625 -11.94643,0 -20.30893,-8.3625 -8.3625,-8.3625 -8.3625,-20.30893 l 0,-19.11428 -152.91429,0 0,19.11428 q 0,11.94643 -8.3625,20.30893 -8.3625,8.3625 -20.30893,8.3625 -11.94642,0 -20.30892,-8.3625 -8.3625,-8.3625 -8.3625,-20.30893 l 0,-19.11428 -14.33572,0 q -2.09062,0 -3.4346,-1.34398 -1.34397,-1.34397 -1.34397,-3.43459 l 0,-57.34286 q 0,-13.88772 9.78115,-23.66886 9.78113,-9.78114 23.66885,-9.78114 l 4.18125,0 15.67969,-62.56942 q 3.4346,-14.03705 15.53035,-23.51953 12.09576,-9.48248 26.73014,-9.48248 l 114.68571,0 q 14.63438,0 26.73014,9.48248 12.09576,9.48248 15.53035,23.51953 l 15.67969,62.56942 4.18125,0 q 13.88772,0 23.66885,9.78114 9.78115,9.78114 9.78115,23.66886 z"
           id="path4" />
      </g>
    </g>
  </g>
</svg>
