<?xml version="1.0" encoding="UTF-8" standalone="no"?>
<svg
   xmlns:dc="http://purl.org/dc/elements/1.1/"
   xmlns:cc="http://creativecommons.org/ns#"
   xmlns:rdf="http://www.w3.org/1999/02/22-rdf-syntax-ns#"
   xmlns:svg="http://www.w3.org/2000/svg"
   xmlns="http://www.w3.org/2000/svg"
   xmlns:sodipodi="http://sodipodi.sourceforge.net/DTD/sodipodi-0.dtd"
   xmlns:inkscape="http://www.inkscape.org/namespaces/inkscape"
   width="256px"
   height="272px"
   viewBox="0 0 256 272"
   version="1.1"
   preserveAspectRatio="xMidYMid"
   id="svg2"
   inkscape:version="0.91 r13725"
   sodipodi:docname="carshare-angular2-icon.svg">
  <metadata
     id="metadata16">
    <rdf:RDF>
      <cc:Work
         rdf:about="">
        <dc:format>image/svg+xml</dc:format>
        <dc:type
           rdf:resource="http://purl.org/dc/dcmitype/StillImage" />
      </cc:Work>
    </rdf:RDF>
  </metadata>
  <defs
     id="defs14" />
  <sodipodi:namedview
     pagecolor="#ffffff"
     bordercolor="#666666"
     borderopacity="1"
     objecttolerance="10"
     gridtolerance="10"
     guidetolerance="10"
     inkscape:pageopacity="0"
     inkscape:pageshadow="2"
     inkscape:window-width="1920"
     inkscape:window-height="1056"
     id="namedview12"
     showgrid="false"
     inkscape:zoom="2.4540765"
     inkscape:cx="128.76208"
     inkscape:cy="143.56735"
     inkscape:window-x="0"
     inkscape:window-y="24"
     inkscape:window-maximized="1"
     inkscape:current-layer="g4" />
  <g
     id="g4">
    <path
       d="M0.0996108949,45.522179 L125.908171,0.697276265 L255.103502,44.7252918 L234.185214,211.175097 L125.908171,271.140856 L19.3245136,211.971984 L0.0996108949,45.522179 Z"
       id="path6"
       fill="#E23237" />
    <path
       d="M255.103502,44.7252918 L125.908171,0.697276265 L125.908171,271.140856 L234.185214,211.274708 L255.103502,44.7252918 L255.103502,44.7252918 Z"
       id="path8"
       fill="#B52E31" />
    <g
       style="fill:#000000"
       id="g4357"
       transform="matrix(8.7082629,0,0,8.7082629,22.228766,18.361236)">
      <path
         style="fill:#ffffff;fill-opacity:1;stroke:none;stroke-opacity:1"
         id="path4"
         d="M 17.943171,6.6715223 C 17.770727,6.162812 17.287883,5.8006793 16.718817,5.8006793 l -9.4844277,0 c -0.5690657,0 -1.0432872,0.3621327 -1.2243535,0.870843 l -1.7934192,5.1647027 0,6.897766 c 0,0.474222 0.3879993,0.862221 0.8622207,0.862221 l 0.8622208,0 c 0.4742214,0 0.8622208,-0.387999 0.8622208,-0.862221 l 0,-0.862221 10.3466491,0 0,0.862221 c 0,0.474222 0.387999,0.862221 0.86222,0.862221 l 0.862221,0 c 0.474222,0 0.862221,-0.387999 0.862221,-0.862221 l 0,-6.897766 -1.793419,-5.1647027 z M 7.2343893,15.285108 c -0.7156433,0 -1.2933312,-0.577688 -1.2933312,-1.293331 0,-0.715643 0.5776879,-1.293331 1.2933312,-1.293331 0.7156432,0 1.2933311,0.577688 1.2933311,1.293331 0,0.715643 -0.5776879,1.293331 -1.2933311,1.293331 z m 9.4844277,0 c -0.715643,0 -1.293331,-0.577688 -1.293331,-1.293331 0,-0.715643 0.577688,-1.293331 1.293331,-1.293331 0.715644,0 1.293331,0.577688 1.293331,1.293331 0,0.715643 -0.577687,1.293331 -1.293331,1.293331 z M 5.9410581,10.974004 7.2343893,7.0940105 l 9.4844277,0 1.293331,3.8799935 -12.0710899,0 z"
         inkscape:connector-curvature="0" />
      <path
         id="path6-6"
         d="M 0,0 24,0 24,24 0,24 Z"
         inkscape:connector-curvature="0"
         style="fill:none" />
    </g>
  </g>
</svg>
